<svg xmlns="http://www.w3.org/2000/svg" viewBox="0 0 273 190"><defs><style>.cls-1{fill:#bf0039;}.cls-2{fill:#fff;}</style></defs><title>MCJ-logo</title><g id="Layer_2" data-name="Layer 2"><g id="Layer_6" data-name="Layer 6"><rect class="cls-1" width="273" height="190" rx="16.32" ry="16.32"/><rect class="cls-2" x="188.49" y="126.74" width="48.43" height="24.75" rx="6.8" ry="6.8" transform="translate(425.42 278.23) rotate(180)"/><rect class="cls-2" x="23.97" y="38.66" width="25.77" height="112.68" rx="5.01" ry="5.01"/><rect class="cls-2" x="54.46" y="38.66" width="25.77" height="112.68" rx="5.01" ry="5.01"/><rect class="cls-2" x="84.8" y="38.81" width="25.77" height="112.68" rx="5.01" ry="5.01"/><rect class="cls-2" x="216.24" y="33.41" width="25.77" height="36.56" rx="4.35" ry="4.35" transform="translate(280.83 -177.43) rotate(90)"/><rect class="cls-2" x="222.84" y="38.81" width="25.77" height="112.68" rx="5.01" ry="5.01"/><rect class="cls-2" x="152.11" y="38.4" width="25.77" height="26" rx="5.01" ry="5.01" transform="translate(113.6 216.4) rotate(-90)"/><rect class="cls-2" x="152.11" y="125.4" width="25.77" height="26" rx="5.01" ry="5.01" transform="translate(26.6 303.4) rotate(-90)"/><rect class="cls-2" x="120.8" y="38.81" width="25.77" height="112.68" rx="5.01" ry="5.01"/></g></g></svg>